<?xml version="1.0" encoding="utf-8"?>
<!-- www.vectorico.com -->
<svg version="1.1" id="facebook" xmlns="http://www.w3.org/2000/svg" xmlns:xlink="http://www.w3.org/1999/xlink" x="0px" y="0px"
	 viewBox="0 0 64 64" style="enable-background:new 0 0 64 64;" xml:space="preserve" width="15px" height="15px">
<style type="text/css">
	.st0{fill:none;stroke:#000;stroke-miterlimit:10;}
	.st1{fill:#000;stroke:#000;stroke-miterlimit:10;}
</style>
<title>Facebook Circle</title>
<polygon class="st0" points="63,32 62.9,30 62.7,28 62.4,26.1 62,24.1 61.4,22.2 60.8,20.4 59.9,18.6 59,16.8 58,15.1 56.9,13.5 
	55.6,11.9 54.3,10.4 52.8,9.1 51.3,7.7 49.8,6.6 48.1,5.5 46.3,4.5 44.5,3.7 42.7,2.9 40.8,2.3 38.9,1.8 37,1.4 35,1.2 33,1 31,1 
	29,1.2 27,1.4 25.1,1.8 23.2,2.3 21.3,2.9 19.5,3.7 17.7,4.5 15.9,5.5 14.2,6.6 12.7,7.7 11.2,9.1 9.7,10.4 8.4,11.9 7.1,13.5 
	6,15.1 5,16.8 4.1,18.6 3.2,20.4 2.6,22.2 2,24.1 1.6,26.1 1.3,28 1.1,30 1,32 1.1,34 1.3,36 1.6,37.9 2,39.9 2.6,41.8 3.2,43.6 
	4.1,45.4 5,47.2 6,48.9 7.1,50.5 8.4,52.1 9.7,53.6 11.2,54.9 12.7,56.3 14.2,57.4 15.9,58.5 17.7,59.5 19.5,60.3 21.3,61.1 
	23.2,61.7 25.1,62.2 27,62.6 29,62.8 31,63 33,63 35,62.8 37,62.6 38.9,62.2 40.8,61.7 42.7,61.1 44.5,60.3 46.3,59.5 48.1,58.5 
	49.8,57.4 51.3,56.3 52.8,54.9 54.3,53.6 55.6,52.1 56.9,50.5 58,48.9 59,47.2 59.9,45.4 60.8,43.6 61.4,41.8 62,39.9 62.4,37.9 
	62.7,36 62.9,34 63,32 "/>
<polyline class="st1" points="36.9,19.4 36.4,19.4 35.9,19.6 35.5,19.9 35.2,20.4 35,20.8 35,21.3 34.9,21.3 34.9,24.2 41.6,24.2 
	40.4,31.6 34.9,31.6 34.9,50.6 27.5,50.6 27.5,31.6 22.8,31.6 22.8,24.2 27.5,24.2 27.5,19.4 27.5,19.4 27.6,18.4 27.8,17.4 
	28.1,16.6 28.5,15.7 29.1,14.9 29.7,14.1 30.5,13.5 31.3,13 32.2,12.5 33,12.2 34,12 35,12 35,11.9 41.4,11.9 41.4,19.3 36.9,19.3 
	"/>
</svg>
